<mxfile host="65bd71144e">
    <diagram id="rj6UjD9lto2laL2P1jbC" name="Page-1">
        <mxGraphModel dx="1088" dy="1006" grid="1" gridSize="10" guides="1" tooltips="1" connect="1" arrows="1" fold="1" page="1" pageScale="1" pageWidth="3300" pageHeight="2339" math="0" shadow="0">
            <root>
                <mxCell id="0"/>
                <mxCell id="1" parent="0"/>
                <mxCell id="2" value="" style="rounded=0;whiteSpace=wrap;html=1;fillColor=#bac8d3;strokeColor=#23445d;glass=1;shadow=0;" vertex="1" parent="1">
                    <mxGeometry x="130" y="70" width="800" height="580" as="geometry"/>
                </mxCell>
                <mxCell id="15" style="edgeStyle=orthogonalEdgeStyle;html=1;entryX=0;entryY=0.5;entryDx=0;entryDy=0;strokeColor=#990000;fontColor=#003366;" edge="1" parent="1" source="3" target="8">
                    <mxGeometry relative="1" as="geometry"/>
                </mxCell>
                <mxCell id="3" value="Bob" style="shape=umlActor;verticalLabelPosition=bottom;verticalAlign=top;html=1;outlineConnect=0;rounded=0;shadow=0;glass=1;sketch=0;strokeColor=#001933;fontColor=#1A1A1A;" vertex="1" parent="1">
                    <mxGeometry x="180" y="170" width="30" height="60" as="geometry"/>
                </mxCell>
                <mxCell id="5" value="Alice" style="shape=umlActor;verticalLabelPosition=bottom;verticalAlign=top;html=1;outlineConnect=0;rounded=0;shadow=0;glass=1;sketch=0;strokeColor=#001933;fontColor=#1A1A1A;" vertex="1" parent="1">
                    <mxGeometry x="190" y="465" width="30" height="60" as="geometry"/>
                </mxCell>
                <mxCell id="14" style="edgeStyle=orthogonalEdgeStyle;html=1;entryX=0.5;entryY=0;entryDx=0;entryDy=0;fontColor=#003366;strokeColor=#990000;" edge="1" parent="1" source="8" target="12">
                    <mxGeometry relative="1" as="geometry"/>
                </mxCell>
                <mxCell id="8" value="&lt;div style=&quot;color: rgb(204, 204, 204); background-color: rgb(31, 31, 31); font-family: Menlo, Monaco, &amp;quot;Courier New&amp;quot;, monospace; font-size: 14px; line-height: 21px;&quot;&gt;&lt;span style=&quot;color: #dcdcaa;&quot;&gt;task_recv_from_client&lt;/span&gt;&lt;/div&gt;" style="shape=process;whiteSpace=wrap;html=1;backgroundOutline=1;rounded=1;shadow=0;glass=0;sketch=0;strokeColor=#10739e;fillColor=#b1ddf0;fontColor=#003366;" vertex="1" parent="1">
                    <mxGeometry x="360" y="160" width="250" height="40" as="geometry"/>
                </mxCell>
                <mxCell id="23" style="edgeStyle=orthogonalEdgeStyle;html=1;entryX=1;entryY=1;entryDx=0;entryDy=0;entryPerimeter=0;strokeColor=#000099;fontColor=#003366;" edge="1" parent="1" source="9" target="3">
                    <mxGeometry relative="1" as="geometry"/>
                </mxCell>
                <mxCell id="9" value="&lt;div style=&quot;color: rgb(204, 204, 204); background-color: rgb(31, 31, 31); font-family: Menlo, Monaco, &amp;quot;Courier New&amp;quot;, monospace; font-size: 14px; line-height: 21px;&quot;&gt;&lt;div style=&quot;line-height: 21px;&quot;&gt;&lt;span style=&quot;color: #dcdcaa;&quot;&gt;task_send_to_client&lt;/span&gt;&lt;/div&gt;&lt;/div&gt;" style="shape=process;whiteSpace=wrap;html=1;backgroundOutline=1;rounded=1;shadow=0;glass=0;sketch=0;strokeColor=#10739e;fillColor=#b1ddf0;fontColor=#003366;" vertex="1" parent="1">
                    <mxGeometry x="360" y="220" width="250" height="40" as="geometry"/>
                </mxCell>
                <mxCell id="10" value="&lt;div style=&quot;color: rgb(204, 204, 204); background-color: rgb(31, 31, 31); font-family: Menlo, Monaco, &amp;quot;Courier New&amp;quot;, monospace; font-size: 14px; line-height: 21px;&quot;&gt;&lt;span style=&quot;color: #dcdcaa;&quot;&gt;task_recv_from_client&lt;/span&gt;&lt;/div&gt;" style="shape=process;whiteSpace=wrap;html=1;backgroundOutline=1;rounded=1;shadow=0;glass=0;sketch=0;strokeColor=#10739e;fillColor=#b1ddf0;fontColor=#003366;" vertex="1" parent="1">
                    <mxGeometry x="360" y="440" width="250" height="40" as="geometry"/>
                </mxCell>
                <mxCell id="22" style="edgeStyle=orthogonalEdgeStyle;html=1;entryX=1;entryY=0.3333333333333333;entryDx=0;entryDy=0;entryPerimeter=0;strokeColor=#000099;fontColor=#003366;" edge="1" parent="1" source="11" target="5">
                    <mxGeometry relative="1" as="geometry"/>
                </mxCell>
                <mxCell id="11" value="&lt;div style=&quot;color: rgb(204, 204, 204); background-color: rgb(31, 31, 31); font-family: Menlo, Monaco, &amp;quot;Courier New&amp;quot;, monospace; font-size: 14px; line-height: 21px;&quot;&gt;&lt;div style=&quot;line-height: 21px;&quot;&gt;&lt;span style=&quot;color: #dcdcaa;&quot;&gt;task_send_to_client&lt;/span&gt;&lt;/div&gt;&lt;/div&gt;" style="shape=process;whiteSpace=wrap;html=1;backgroundOutline=1;rounded=1;shadow=0;glass=0;sketch=0;strokeColor=#10739e;fillColor=#b1ddf0;fontColor=#003366;" vertex="1" parent="1">
                    <mxGeometry x="360" y="500" width="250" height="40" as="geometry"/>
                </mxCell>
                <mxCell id="16" style="edgeStyle=orthogonalEdgeStyle;html=1;entryX=1;entryY=0.5;entryDx=0;entryDy=0;strokeColor=#000099;fontColor=#003366;" edge="1" parent="1" source="12" target="9">
                    <mxGeometry relative="1" as="geometry"/>
                </mxCell>
                <mxCell id="17" style="edgeStyle=orthogonalEdgeStyle;html=1;entryX=1;entryY=0.5;entryDx=0;entryDy=0;strokeColor=#000099;fontColor=#003366;" edge="1" parent="1" source="12" target="11">
                    <mxGeometry relative="1" as="geometry"/>
                </mxCell>
                <mxCell id="12" value="&lt;div style=&quot;color: rgb(204, 204, 204); background-color: rgb(31, 31, 31); font-family: Menlo, Monaco, &amp;quot;Courier New&amp;quot;, monospace; font-size: 14px; line-height: 21px;&quot;&gt;&lt;span style=&quot;color: #dcdcaa;&quot;&gt;dispatch_message&lt;/span&gt;&lt;/div&gt;" style="shape=process;whiteSpace=wrap;html=1;backgroundOutline=1;rounded=1;shadow=0;glass=0;sketch=0;strokeColor=#ae4132;fillColor=#fad9d5;" vertex="1" parent="1">
                    <mxGeometry x="670" y="330" width="240" height="40" as="geometry"/>
                </mxCell>
                <mxCell id="19" value="" style="swimlane;startSize=0;rounded=1;shadow=0;glass=0;sketch=0;strokeColor=#001933;fontColor=#003366;dashed=1;" vertex="1" parent="1">
                    <mxGeometry x="340" y="140" width="290" height="130" as="geometry">
                        <mxRectangle x="340" y="140" width="50" height="40" as="alternateBounds"/>
                    </mxGeometry>
                </mxCell>
                <mxCell id="21" value="" style="swimlane;startSize=0;rounded=1;shadow=0;glass=0;sketch=0;strokeColor=#001933;fontColor=#003366;dashed=1;" vertex="1" parent="1">
                    <mxGeometry x="340" y="430" width="290" height="130" as="geometry">
                        <mxRectangle x="340" y="140" width="50" height="40" as="alternateBounds"/>
                    </mxGeometry>
                </mxCell>
            </root>
        </mxGraphModel>
    </diagram>
</mxfile>